HIERARCHY
ROOT Hips
{
	OFFSET -3.958830 18.904000 13.208200
	CHANNELS 6 Xposition Yposition Zposition Zrotation Yrotation Xrotation 
	JOINT LHipJoint
	{
		OFFSET 0.000000 0.000000 0.000000
		CHANNELS 3 Zrotation Yrotation Xrotation
		JOINT LeftUpLeg
		{
			OFFSET 1.800000 -1.400000 0.085000
			CHANNELS 3 Zrotation Yrotation Xrotation
			JOINT LeftLeg
			{
				OFFSET 2.215000 -6.000000 0.000000
				CHANNELS 3 Zrotation Yrotation Xrotation
				JOINT LeftFoot
				{
					OFFSET 2.500000 -6.900000 0.000000
					CHANNELS 3 Zrotation Yrotation Xrotation
					JOINT LeftToeBase
					{
						OFFSET 0.200000 -0.500000 1.950000
						CHANNELS 3 Zrotation Yrotation Xrotation
						End Site
						{
							OFFSET 0.000000 0.000000 0.000000
						}
					}
				}
			}
		}
	}
	JOINT RHipJoint
	{
		OFFSET 0.000000 0.000000 0.000000
		CHANNELS 3 Zrotation Yrotation Xrotation
		JOINT RightUpLeg
		{
			OFFSET -1.800000 -1.400000 0.085000
			CHANNELS 3 Zrotation Yrotation Xrotation
			JOINT RightLeg
			{
				OFFSET -2.215000 -6.000000 0.000000
				CHANNELS 3 Zrotation Yrotation Xrotation
				JOINT RightFoot
				{
					OFFSET -2.500000 -6.900000 0.000000
					CHANNELS 3 Zrotation Yrotation Xrotation
					JOINT RightToeBase
					{
						OFFSET -0.200000 -0.500000 1.950000
						CHANNELS 3 Zrotation Yrotation Xrotation
						End Site
						{
							OFFSET 0.000000 0.000000 0.000000
						}
					}
				}
			}
		}
	}
	JOINT LowerBack
	{
		OFFSET 0.000000 0.000000 0.000000
		CHANNELS 3 Zrotation Yrotation Xrotation
		JOINT Spine
		{
			OFFSET -0.087000 1.940000 -0.288900
			CHANNELS 3 Zrotation Yrotation Xrotation
			JOINT Spine1
			{
				OFFSET 0.000000 1.950000 0.060000
				CHANNELS 3 Zrotation Yrotation Xrotation
				JOINT Neck
				{
					OFFSET 0.000000 0.000000 0.000000
					CHANNELS 3 Zrotation Yrotation Xrotation
					JOINT Neck1
					{
						OFFSET 0.000000 1.600000 0.340000
						CHANNELS 3 Zrotation Yrotation Xrotation
						JOINT Head
						{
							OFFSET 0.000000 1.667000 -0.240000
							CHANNELS 3 Zrotation Yrotation Xrotation
							End Site
							{
								OFFSET 0.000000 0.000000 0.000000
							}
						}
					}
				}
				JOINT LeftShoulder
				{
					OFFSET 0.000000 0.000000 0.000000
					CHANNELS 3 Zrotation Yrotation Xrotation
					JOINT LeftArm
					{
						OFFSET 2.700000 1.550000 -0.730000
						CHANNELS 3 Zrotation Yrotation Xrotation
						JOINT LeftForeArm
						{
							OFFSET 5.450000 0.000000 0.000000
							CHANNELS 3 Zrotation Yrotation Xrotation
							JOINT LeftHand
							{
								OFFSET 3.450000 0.000000 0.000000
								CHANNELS 3 Zrotation Yrotation Xrotation
								JOINT LeftHandIndex1
								{
									OFFSET 0.750000 0.000000 0.000000
									CHANNELS 3 Zrotation Yrotation Xrotation
									End Site
									{
										OFFSET 0.000000 0.000000 0.000000
									}
								}
							}
						}
					}
				}
				JOINT RightShoulder
				{
					OFFSET 0.000000 0.000000 0.000000
					CHANNELS 3 Zrotation Yrotation Xrotation
					JOINT RightArm
					{
						OFFSET -2.700000 1.550000 -0.730000
						CHANNELS 3 Zrotation Yrotation Xrotation
						JOINT RightForeArm
						{
							OFFSET -5.450000 0.000000 0.000000
							CHANNELS 3 Zrotation Yrotation Xrotation
							JOINT RightHand
							{
								OFFSET -3.450000 0.000000 0.000000
								CHANNELS 3 Zrotation Yrotation Xrotation
								JOINT RightHandIndex1
								{
									OFFSET -0.750000 0.000000 0.000000
									CHANNELS 3 Zrotation Yrotation Xrotation
									End Site
									{
										OFFSET 0.000000 0.000000 0.000000
									}
								}
							}
						}
					}
				}
			}
		}
	}
}
MOTION
Frames: 4
Frame Time: 0.016667
-5.211660 18.823690 -1.583080 -16.793613 30.047793 -14.471450 -15.790110 13.807759 2.274830 9.329079 -5.661329 -14.695882 4.829568 6.354474 47.660412 0.066424 8.456047 1.735875 0.392440 0.307590 0.256390 17.893206 -8.134379 5.036745 -0.840289 11.719437 -47.138249 7.588687 -18.209589 67.377919 -2.257132 -11.442798 0.424923 0.169660 0.577330 0.574460 -2.317719 -5.562142 -8.653448 3.789844 -3.644886 40.007692 7.094317 -2.107688 15.052655 2.451054 8.563942 -8.086170 12.046256 -7.225148 50.590974 -3.782300 0.924200 -13.797750 -13.944583 -11.085576 -0.285794 25.802121 1.172754 -1.489312 29.683248 -39.426371 -7.154494 -3.824087 2.829867 0.833060 0.207500 0.473590 0.487130 10.616771 4.790413 5.378327 -7.918602 -14.816040 -2.303962 -17.608463 30.455097 -2.880349 2.204589 -1.490180 -0.303000 0.485100 -0.133410 0.134740 
-5.002560 18.774370 -1.510150 -16.600144 27.999007 -11.862045 -15.689341 13.706724 2.243958 9.165523 -5.613349 -14.753659 6.352021 5.433140 47.557439 -0.087936 8.221524 1.684721 0.420360 0.263900 0.397540 17.975850 -8.332881 5.194950 2.648516 12.884625 -48.057370 6.064284 -11.474998 52.099154 -1.530430 -7.510416 1.458649 0.084180 0.337180 0.573190 -2.670713 -4.773147 -8.617137 6.012745 -4.510590 33.770129 6.050365 -2.097992 14.314420 2.761963 8.501670 -10.471532 13.347073 -9.854774 66.403256 -3.392950 0.146120 -19.037100 -16.270019 -15.838580 2.307667 27.140970 4.570233 -0.324686 23.276536 -34.928395 -4.542411 -3.729993 2.761643 1.123920 -0.021090 0.675080 0.346510 12.651474 9.150099 5.962354 -16.895527 -18.305112 0.116855 -4.956605 27.344130 0.261518 2.221710 -1.353512 -0.279330 0.507940 -0.049180 0.004280 
-4.805730 18.689230 -1.396640 -12.070827 27.258297 -7.411142 -15.784142 13.974233 2.511626 4.832422 -5.513226 -14.512449 8.266610 3.816112 45.938759 -0.253125 7.713744 1.796646 0.447750 0.208890 0.513100 17.800058 -8.639255 4.848817 4.186460 10.750688 -46.160473 2.422774 -5.341976 32.694293 -0.821225 -3.180489 2.801950 0.024540 0.210410 0.571600 -2.299699 -4.884819 -8.324844 1.325419 -3.302910 27.402648 6.694801 -1.839924 11.243414 2.606529 7.443860 -11.783933 12.795489 -10.703632 81.678829 -0.681440 -0.096970 -20.752250 -17.230295 -17.722535 3.247675 28.512548 4.663592 0.852535 11.928544 -29.489682 -1.529348 -3.576394 2.759087 1.362330 -0.170600 0.808690 0.261040 14.348346 12.316275 6.046445 -22.232573 -18.921063 1.193298 3.852440 23.102339 1.810962 2.181492 -1.331137 -0.296360 0.551630 0.010060 -0.094990 
-4.588390 18.545810 -1.330370 -9.839467 26.683098 -4.138777 -15.726247 13.995202 2.475723 2.542080 -4.588626 -13.295350 8.864162 2.750406 40.616388 -0.469633 6.668420 2.124149 0.552530 0.312470 0.598260 17.819290 -8.989588 4.558267 5.164631 8.769109 -43.559995 3.074863 -2.718051 11.490342 -0.506495 -0.585695 3.672057 0.076630 0.121020 0.563540 -2.474106 -4.397603 -8.092062 1.356103 -4.477062 21.164188 4.527328 -3.188211 9.428572 2.885002 5.799006 -11.248756 10.096769 -9.183263 90.610818 0.394970 -0.011980 -20.599350 -18.941435 -18.033910 3.710568 28.537050 6.377031 1.637368 10.073045 -27.687522 -1.260075 -3.471601 2.836294 1.430790 -0.248830 0.882480 0.260470 16.020634 13.722467 4.315137 -27.088641 -14.981055 1.491239 9.613590 16.085141 2.109441 2.067473 -1.480380 -0.267670 0.550790 -0.029790 -0.115080 
